<svg viewBox="0 0 100 100" xmlns="http://www.w3.org/2000/svg" xmlns:xlink="http://www.w3.org/1999/xlink">
  <defs>
    <filter id="blur" x="-100%" y="-100%" width="300%" height="300%">
      <feGaussianBlur in="SourceGraphic" stdDeviation="2" />
    </filter>
  </defs>
  <path d="M10 5v90h70v-60q0-5-5-10l-15-15q-5-5-10-5h-40Z" fill="#fff" stroke="#666" stroke-width="0.5" />
  <path d="M73 22.5h-7.5v-7.5" stroke="#666" stroke-width="3" fill="none" filter="url(#blur)" />
  <path d="M80 35q0-5-5-10l-15-15q-5-5-10-5q12.5 1 12.5 17.5q17.5 1 17.5 12.5Z" stroke="#666" stroke-width="0.5" fill="#fff"/>
  <path d="M35 28h5v3h-5v3h5v3h-5v3h5v3h-5v10c0 15 20 15 20 0v-10h-5v-3h5v-3h-5v-3h5v-3h-5v-3h5c0-15-20-15-20 0m-10 27c0 25 40 25 40 0v-5c0-5-7-5-7 0v5c0 17-26 17-26 0v-5c0-5-7-5-7 0v5m16.5 15v7h7v-7h-7m-6.5 7h25c5 0 5 7 0 7h-30c-5 0-5-7 0-7h25" fill="#a00" />
  <path d="M72 54v30l-5-5c-4-4-10 2-6 6l11 11q4 4 8 0l11-11c4-4-2-10-6-6l-5 5v-30c0-6-8-6-8 0" fill="#06dd85" stroke="#037a49" stroke-width="2" />
</svg>
