<svg xmlns="http://www.w3.org/2000/svg" viewBox="0 0 32 32">
  <rect width="32" height="32" fill="#fff"/>
  <g>
    <rect x="2" y="2" width="2" height="10"/>
    <rect x="10" y="2" width="2" height="10"/>
    <rect x="4" y="2" width="6" height="2"/>
    <rect x="4" y="10" width="6" height="2"/>
    <rect x="6" y="6" width="2" height="2"/>
    <rect x="20" y="2" width="2" height="10"/>
    <rect x="28" y="2" width="2" height="10"/>
    <rect x="22" y="2" width="6" height="2"/>
    <rect x="22" y="10" width="6" height="2"/>
    <rect x="24" y="6" width="2" height="2"/>
    <rect x="2" y="20" width="2" height="10"/>
    <rect x="10" y="20" width="2" height="10"/>
    <rect x="4" y="20" width="6" height="2"/>
    <rect x="4" y="28" width="6" height="2"/>
    <rect x="6" y="24" width="2" height="2"/>
    <rect x="14" y="2" width="4" height="2"/>
    <rect x="14" y="4" width="2" height="4"/>
    <rect x="16" y="6" width="2" height="6"/>
    <rect x="14" y="10" width="2" height="4"/>
    <rect x="2" y="14" width="2" height="2"/>
    <rect x="4" y="16" width="2" height="2"/>
    <rect x="6" y="14" width="4" height="2"/>
    <rect x="8" y="16" width="8" height="2"/>
    <rect x="16" y="14" width="2" height="2"/>
    <rect x="14" y="18" width="2" height="2"/>
    <rect x="14" y="22" width="2" height="6"/>
    <rect x="16" y="20" width="2" height="2"/>
    <rect x="16" y="24" width="2" height="2"/>
    <rect x="16" y="28" width="8" height="2"/>
    <rect x="18" y="18" width="2" height="2"/>
    <rect x="18" y="22" width="2" height="2"/>
    <rect x="20" y="14" width="4" height="2"/>
    <rect x="20" y="20" width="8" height="2"/>
    <rect x="20" y="24" width="2" height="2"/>
    <rect x="22" y="16" width="2" height="2"/>
    <rect x="22" y="26" width="2" height="2"/>
    <rect x="24" y="22" width="2" height="4"/>
    <rect x="26" y="16" width="2" height="4"/>
    <rect x="26" y="24" width="2" height="2"/>
    <rect x="26" y="28" width="2" height="2"/>
    <rect x="28" y="14" width="2" height="4"/>
    <rect x="28" y="22" width="2" height="2"/>
    <rect x="28" y="26" width="2" height="2"/>
  </g>
</svg>